<svg xmlns="http://www.w3.org/2000/svg" data-name="Layer 1" viewBox="0 0 100 125" x="0px" y="0px"><path d="m50,5.61h0c-8.58,0-15.53,6.95-15.53,15.53v37.85c-3.46,3.76-5.59,8.77-5.59,14.28,0,11.67,9.46,21.12,21.12,21.12s21.12-9.46,21.12-21.12c0-5.51-2.13-10.52-5.59-14.28V21.14c0-8.58-6.95-15.53-15.53-15.53Zm0,82.6c-8.25,0-14.94-6.69-14.94-14.94,0-1,.1-1.98.29-2.92.68-3.45,2.56-6.48,5.18-8.63V21.2c0-5.23,4.24-9.47,9.47-9.47h0c5.23,0,9.47,4.24,9.47,9.47v40.53c2.62,2.15,4.49,5.18,5.18,8.63.19.94.29,1.92.29,2.92,0,8.25-6.69,14.94-14.94,14.94Z"/><path d="m53.3,64.48v-31.21c0-1.82-1.48-3.3-3.3-3.3s-3.3,1.48-3.3,3.3v31.21c-3.56,1.34-6.1,4.77-6.1,8.8,0,5.19,4.21,9.4,9.4,9.4s9.4-4.21,9.4-9.4c0-4.03-2.54-7.46-6.1-8.8Z"/><text x="0" y="115" fill="#000000" font-size="5px" font-weight="bold" font-family="'Helvetica Neue', Helvetica, Arial-Unicode, Arial, Sans-serif">Created by Jerry Cannary</text><text x="0" y="120" fill="#000000" font-size="5px" font-weight="bold" font-family="'Helvetica Neue', Helvetica, Arial-Unicode, Arial, Sans-serif">from the Noun Project</text></svg>