<svg xmlns="http://www.w3.org/2000/svg" viewBox="0 0 64 80" fill="none" x="0px" y="0px"><path d="M20.5737 6H40C41.1046 6 42 6.89543 42 8C42 9.10457 41.1046 10 40 10H20.5737C19.1057 10 17.7557 10.8041 17.0565 12.0949L7.35789 30H13C14.1046 30 15 30.8954 15 32C15 33.1046 14.1046 34 13 34H6V50C6 52.2091 7.79086 54 10 54H54C56.2091 54 58 52.2091 58 50V34H23C21.8954 34 21 33.1046 21 32C21 30.8954 21.8954 30 23 30H58V14C58 11.7909 56.2091 10 54 10H50C48.8954 10 48 9.10457 48 8C48 6.89543 48.8954 6 50 6H54C58.4183 6 62 9.58172 62 14V50C62 54.4183 58.4183 58 54 58H10C5.58172 58 2 54.4183 2 50V33.5206C2 32.19 2.33191 30.8804 2.96566 29.7104L13.5393 10.1897C14.9377 7.60819 17.6377 6 20.5737 6Z" fill="black"/><path d="M53 40C53 41.1046 52.1046 42 51 42H43C41.8954 42 41 41.1046 41 40C41 38.8954 41.8954 38 43 38H51C52.1046 38 53 38.8954 53 40Z" fill="black"/><text x="0" y="79" fill="#000000" font-size="5px" font-weight="bold" font-family="'Helvetica Neue', Helvetica, Arial-Unicode, Arial, Sans-serif">Created by HideMaru</text><text x="0" y="84" fill="#000000" font-size="5px" font-weight="bold" font-family="'Helvetica Neue', Helvetica, Arial-Unicode, Arial, Sans-serif">from the Noun Project</text></svg>