<svg xmlns="http://www.w3.org/2000/svg" data-name="Layer 1" viewBox="0 0 100 125" x="0px" y="0px"><path d="M12.39,44.74l2.97-3.15,1.48-1.58,.74-.79c.28-.3,.59-.68,.84-1.02,1.05-1.43,1.77-3.11,2.08-4.86,.08-.44,.13-.88,.16-1.32,.02-.22,.02-.44,.02-.67v-.55s0-2.16,0-2.16c-.01-.75,.03-1.39,.06-2.04,.02-.33,.03-.65,.05-.98l.15-.97,.14-.97c.07-.32,.16-.63,.24-.95,.15-.63,.31-1.27,.56-1.87,1.72-4.92,5.39-9.14,10.04-11.53,2.32-1.2,4.86-1.95,7.47-2.21l1.96-.1h2.16s4.33,0,4.33,0h4.33s2.16,.02,2.16,.02c.72,0,1.47,0,2.09,.05,2.61,.1,5.19,.7,7.56,1.76,4.75,2.12,8.61,6.14,10.48,10.92,.95,2.38,1.41,4.94,1.38,7.48,.03,.59-.02,1.39-.04,2.09-.01,.73-.08,1.36-.03,2.4,.1,1.88,.63,3.75,1.56,5.41,.46,.83,1.02,1.62,1.66,2.33,.32,.36,.66,.69,.89,.92l.76,.77,3.02,3.1,2.62,3.01c3.71,3.9,9.13,9.51,12.42,5.73,2.7-3.1-3.01-7.8-6.63-11.21l-2.82-2.56-3.11-2.88-1.56-1.44c-.26-.24-.36-.33-.51-.49-.14-.15-.27-.31-.39-.47-.49-.65-.83-1.42-.99-2.22-.04-.2-.07-.4-.09-.61-.02-.21-.02-.36-.03-.77l-.02-2.12c0-.33-.02-.74-.04-1.16l-.07-1.24c-.02-.83-.19-1.64-.32-2.45-.11-.82-.32-1.62-.54-2.41l-.33-1.19-.43-1.16c-2.31-6.19-6.97-11.39-12.8-14.38-2.91-1.5-6.09-2.48-9.34-2.8-.81-.09-1.63-.1-2.44-.14l-.6-.02h-.53s-1.06,0-1.06,0h-4.23s-4.43,0-4.43,0h-2.21s-1.11,0-1.11,0c-.37,0-.72,0-1.17,.02-3.4,.05-6.81,.77-9.95,2.11-6.29,2.67-11.43,7.86-14.05,14.18-1.32,3.15-2.02,6.56-2.03,9.97-.02,.8,0,1.49,0,2.24,0,.7,.01,1.61-.02,1.94-.07,.92-.36,1.82-.83,2.61-.12,.2-.25,.39-.39,.57-.07,.1-.14,.18-.21,.25-.04,.05-.22,.24-.33,.36l-1.5,1.62-3.01,3.24-2.56,2.73c-2.64,2.85-7.28,6.39-4.76,9.08,2.73,2.9,6.03-2.27,8.58-4.94l2.51-2.53Z"/><path d="M16.29,81.13c.05,.67,.03,1.35,.16,2.01,.36,2.68,1.33,5.27,2.82,7.52,3,4.48,8.1,7.54,13.5,7.87,1.41,.1,2.52,.05,3.71,.06h3.55s7.1,0,7.1,0l14.19,.1,1.79,.02c.68-.03,1.36-.02,2.03-.11,1.35-.16,2.69-.42,3.97-.89,2.57-.89,4.98-2.33,6.92-4.28,1.95-1.93,3.49-4.3,4.45-6.92,.25-.65,.41-1.33,.61-2,.13-.68,.28-1.37,.37-2.06l.09-1.05c.03-.35,.06-.71,.07-.99l.08-1.77c.22-4.73,.5-9.45,.84-14.18,.32-4.41,.7-10.8-4.3-10.66-4.1,.12-3.64,6.16-3.66,10.24-.02,4.63,0,9.26,.04,13.88l.02,1.74c0,.58,.02,1.2-.01,1.57,0,.43-.02,.87-.1,1.29-.03,.21-.05,.43-.09,.64l-.15,.63c-.42,1.67-1.19,3.28-2.32,4.62-1.12,1.35-2.53,2.45-4.12,3.21-.39,.21-.82,.32-1.22,.5-.42,.13-.85,.24-1.27,.36-.44,.06-.87,.16-1.31,.2l-.67,.04c-.22,.02-.43,.04-.74,.03-4.63,.05-9.26,.09-13.88,.09h-14.51c-1.93,0-3.75-.43-5.43-1.25-1.68-.81-3.17-2.03-4.29-3.53-1.12-1.49-1.95-3.22-2.27-5.06-.05-.46-.18-.92-.17-1.39-.02-.47-.06-.9-.05-1.56v-3.63s-.02-14.51-.02-14.51c0-3.18,.98-7.91-2.7-8.11-3.98-.22-2.86,4.73-2.91,7.75-.07,4.73-.11,9.46-.13,14.19v3.55c0,.61-.03,1.14,0,1.82Z"/><path d="M41.62,66.24c-.38,0-.95-.98-.97,2.7-.03,3.98,.57,2.86,.93,2.91,4.54,.58,9.09-.89,13.62,1.84,.53,.32,1.3,.7,1.28-4.3-.01-4.1-.74-3.64-1.23-3.66-2.22-.08-4.44,.49-6.66,.49s-4.65-.02-6.97,.02Z"/><path d="M68.73,44.02c1.84-3.54-.22-3.28-1.12-3.68-5.75-2.66-12.02-4.18-18.55-4.37-3.28-.09-6.5,.28-9.68,.72-3.2,.45-6.36,1.02-9.64,1.58-1.5,.23-3.82,.88-1.54,5.35,1.83,3.66,3.18,2.53,4.36,2.08,5.19-1.97,10.6-3.95,15.95-4.01,5.56,.03,11.4,1.59,16.85,3.78,.93,.37,1.72,1.83,3.38-1.45Z"/><text x="0" y="115" fill="#000000" font-size="5px" font-weight="bold" font-family="'Helvetica Neue', Helvetica, Arial-Unicode, Arial, Sans-serif">Created by Gregor Cresnar</text><text x="0" y="120" fill="#000000" font-size="5px" font-weight="bold" font-family="'Helvetica Neue', Helvetica, Arial-Unicode, Arial, Sans-serif">from the Noun Project</text></svg>